<svg height="512pt" viewBox="-44 0 511 512" width="512pt" xmlns="http://www.w3.org/2000/svg"><path d="m55.675781 183.871094h-15.101562v-143.796875h47.621093v15.101562h-32.519531zm0 0"/><path d="m40.574219 231.957031h15.101562v16.027344h-15.101562zm0 0"/><path d="m104.226562 168.304688h232.417969v15.101562h-232.417969zm0 0"/><path d="m104.226562 264.476562h88.15625v15.105469h-88.15625zm0 0"/><path d="m104.226562 360.648438h80.144532v15.105468h-80.144532zm0 0"/><path d="m315.730469 0h-91.289063v15.105469h85.03125l99.765625 99.761719v333.941406h-280.96875v15.105468h280.96875v32.980469h-393.632812v-32.980469h88.621093v-15.105468h-88.621093v-433.703125h184.792969v-15.105469h-199.898438v512h423.839844v-403.386719zm0 0"/><path d="m40.574219 199.898438h15.101562v16.027343h-15.101562zm0 0"/><path d="m104.226562 216.390625h232.417969v15.105469h-232.417969zm0 0"/><path d="m104.226562 312.5625h80.144532v15.105469h-80.144532zm0 0"/><path d="m346.800781 380.421875c8.78125-13.121094 13.425781-28.429687 13.425781-44.277344 0-43.9375-35.746093-79.683593-79.683593-79.683593s-79.683594 35.746093-79.683594 79.683593 35.746094 79.683594 79.683594 79.683594c19.640625 0 38.507812-7.210937 53.128906-20.300781l-10.074219-11.253906c-11.851562 10.609374-27.136718 16.449218-43.054687 16.449218-35.609375 0-64.578125-28.972656-64.578125-64.578125 0-35.609375 28.96875-64.578125 64.578125-64.578125s64.578125 28.96875 64.578125 64.578125c0 12.84375-3.757813 25.246094-10.875 35.871094zm0 0"/><path d="m288.097656 368.203125v-24.507813h24.503906v-15.101562h-24.503906v-24.507812h-15.105468v24.507812h-24.507813v15.101562h24.507813v24.507813zm0 0"/><path d="m40.574219 264.015625h15.101562v16.027344h-15.101562zm0 0"/></svg>